<svg t="1677801709811" class="icon" viewBox="0 0 1024 1024" version="1.1"
  xmlns="http://www.w3.org/2000/svg" p-id="1110"
  xmlns:xlink="http://www.w3.org/1999/xlink" width="200" height="200">
  <path
    d="M546.56 704H128c-19.2 0-32-12.8-32-32V256h704v194.56c10.928 1.552 21.648 3.76 32 6.832V128c0-35.2-28.8-64-64-64H128C92.8 64 64 92.8 64 128v544c0 35.2 28.8 64 64 64h425.392a221.936 221.936 0 0 1-6.848-32zM96 128c0-19.2 12.8-32 32-32h640c19.2 0 32 12.8 32 32v96H96V128z"
    fill="#34495E" p-id="1111"></path>
  <path d="M416 160m-32 0a32 32 0 1 0 64 0 32 32 0 1 0-64 0Z" fill="#00B42A"
    p-id="1112"></path>
  <path d="M288 160m-32 0a32 32 0 1 0 64 0 32 32 0 1 0-64 0Z" fill="#F7BA1E"
    p-id="1113"></path>
  <path d="M160 160m-32 0a32 32 0 1 0 64 0 32 32 0 1 0-64 0Z" fill="#F53F3F"
    p-id="1114"></path>
  <path
    d="M382.848 658.928l99.376-370.88 30.912 8.272-99.36 370.88zM318.368 319.2L160 477.6l158.4 158.4 22.64-22.624-135.792-135.776 135.776-135.776zM768 480c-13.088 0-25.888 1.344-38.24 3.84l6.24-6.24-158.4-158.4-22.64 22.624 135.792 135.776-135.776 135.776 22.656 22.624 2.208-2.224a190.768 190.768 0 0 0 30.928 148.08l-116.672 116.656c-10.24 10.24-10.24 26.896 0 37.136l27.76 27.76c5.12 5.12 11.84 7.68 18.56 7.68s13.456-2.56 18.56-7.68l120.992-120.96A190.56 190.56 0 0 0 768 864c105.872 0 192-86.128 192-192s-86.128-192-192-192z m-159.12 193.136c0-88.224 71.776-160 160-160 10.656 0 21.04 1.152 31.12 3.152V672c0 19.2-12.8 32-32 32h-156a160.144 160.144 0 0 1-3.12-30.864z m-68.464 263.584l-19.632-19.632 110.336-110.336c6.464 6.656 13.392 12.848 20.752 18.528l-111.456 111.44z m228.464-103.584c-65.92 0-122.576-40.096-147.056-97.136H768c35.2 0 64-28.8 64-64v-145.776c56.896 24.544 96.88 81.12 96.88 146.912 0 88.224-71.776 160-160 160z"
    fill="#41B883" p-id="1115"></path>
  <path d="M864.576 672c0 52.928-43.072 96-96 96v32a128 128 0 0 0 128-128h-32z"
    fill="#34495E" p-id="1116"></path>
</svg>